<svg xmlns="http://www.w3.org/2000/svg" viewBox="0 0 334.16 29.4">
  <g>
    <path d="M62.39,12.16a37.19,37.19,0,0,1-2.47,3c-1.47,1.64-2.08.77-3-.61s-3.28-5.68-4.7-8.06c-.74,2.39-5.44,20.66-5.82,21.58-.28.76-.11,1.15-1.74,1.15s-1.12-1.13-.85-2.14c1.88-7.18,6-23.75,6.31-24.84.3-1.39.69-1.44,1.64-1.5s.89.52,1.51,1.38c1.42,2.68,4.88,9.34,5.44,10.18.54-.59,9-11,9.22-11.24A2.38,2.38,0,0,1,70.4.69c1.16.43.87,1.08.7,2.48Q69,14.73,67,26.3c-.16.9-.23,1.13-.14.71-.37,2.49-.5,2.24-1.9,2.24s-1.49-.34-1.05-2c.34-2,2.93-16.89,3.71-21.53C67.4,5.59,63.74,10.22,62.39,12.16Z"/>
    <path d="M98.82,21.57c.89-3.22,3.89-15.63,4.83-18.77a12.2,12.2,0,0,1,.4-1.35c.27-1.18.92-1,1.88-.83s.88-.06.63,1.48c-.48,1.86-6.15,25.47-6.2,25.7-.21,1.4-.51,1.34-1.29,1.33s-1.15.4-1.44-1.14c-.74-1.76-4-15.28-5-19.89-.12-.54-.31-1.06-.61-2.05-.28.78-3.45,14.62-4.91,21.16a6,6,0,0,1-.42,1.71c-.37.43-2.3.46-2.57-.12a7.07,7.07,0,0,1,.41-2.31c.72-2.95,4.06-17.9,5-22.43.15-.7.45-1.85.68-2.53.33-1,.8-.8,1.71-.89a1.44,1.44,0,0,1,1.8,1.26c.59,2.23,3.51,13.32,4.23,16.67C98.09,19,98.52,20.57,98.82,21.57Z"/>
    <path d="M212.5,13.32c.81,2.48,1.62,4.72,2.28,7a11.62,11.62,0,0,0,3.1,5.57,7.49,7.49,0,0,1,1.38,1.32c.34.54.81,1.62-.21,2a2.5,2.5,0,0,1-2.29-.27,11.88,11.88,0,0,1-4.5-6.31c-.54-1.59-.87-3.24-1.4-4.83-.71-3.57-3.74-3.19-5.86-3.05-.81.05-.65.4-1.09,1.68-.94,3.47-2.08,7.79-2.66,10.44s-.6,2.34-2.15,2.38c-1.11,0-1.19.28-1-1.41.12-.9,5.26-23.32,5.68-25.19.4-2.17.74-2.07,2.51-2.22a16.19,16.19,0,0,1,4.75,0c4.78,1,6.6,5.7,3.9,9.79C214.23,11.34,213.29,12.34,212.5,13.32Zm-7.73-1.74a11,11,0,0,0,4.3,0,6,6,0,0,0,3.81-3.1c1.35-2.48,0-4.93-2.76-5.08a17,17,0,0,0-3.4.16s-.2.56-.36,1.17C205.77,6.84,205.24,9.31,204.76,11.58Z"/>
    <path d="M122,17.84c-.59,0-1.11-.08-1.63-.08s-1.12.09-1.67,0c-2-.06-1.7-.06-1.72-1.07s.12-1.36,1.68-1.34c1.82,0,3.65,0,5.46.14,1,.07,1.3.91,1.26,1.75a29.56,29.56,0,0,1-1.77,9.53c-.61,1.54-2,2-3.51,2.23a28.33,28.33,0,0,1-7.66-.45,4.82,4.82,0,0,1-3.87-5.49c1.05-5.83,1.79-12.13,3.78-17.78.75-2.14,1.46-3.49,3.54-4.15A19.43,19.43,0,0,1,121.76.5c2.13,0,3.86,2,4.33,3.91s-.29,1.81-1.22,1.8-1.21.12-1.55-1.16c-.45-1.68-1.18-2-3.09-1.83-3.38.23-4.94,1.45-5.66,4.71q-1.51,6.84-2.85,13.72c-.53,2.77.49,4,3.32,4.27,1.43.12,2.87.1,4.31.09a1.92,1.92,0,0,0,2-1.44A16.57,16.57,0,0,0,122,17.84Z"/>
    <path d="M34.3.58A5.46,5.46,0,0,1,40,4.24a9.28,9.28,0,0,1,.58,3.26,51.66,51.66,0,0,1-3.36,17.24,11.4,11.4,0,0,1-1.47,2.16c-3.2,3.74-10,3-12-1.55a8,8,0,0,1-.47-4.67c.69-3.26,1.22-6.55,2-9.79.68-2.95,1.39-6.26,3.76-8.41A7,7,0,0,1,34.3.58Zm3.33,7.48a11.69,11.69,0,0,0-.12-1.9c-.27-1.19-1-2.6-2.43-2.79a4.79,4.79,0,0,0-4.42,1.2C29.3,6,28.59,10.14,28.09,12.2s-1.17,5-1.73,7.81a6.26,6.26,0,0,0,.84,4.83,4.33,4.33,0,0,0,5.94.43,7.92,7.92,0,0,0,1.58-2.06A40.6,40.6,0,0,0,37.63,8.07Z"/>
    <path d="M168.55,19c-2.44.16-5.38,0-6.62.13-1,.09-.67.18-1.61,2.07-.86,1.73-2.68,6-3.19,7s-.11.82-1.94,1-1.48-.56-.69-2.54c2.45-5.79,10-22.56,11.26-25.15.11-.22,1-1.48,2-1.48s1.17.7,1.46,1.39,2.92,19.07,3.56,24.33c.2,2.8.58,3.49-1.15,3.49-1.53.12-1.51-.3-2-3.45Zm-.09-2.73C168,12.93,167.38,9.61,166.73,6a103.7,103.7,0,0,0-4.61,10.31Z"/>
    <path d="M190.24.48c2.38.22,4,.19,5.46,2.09a5.51,5.51,0,0,1,.95,1.64c1.29,4-1.64,9.8-5.61,11.08a25.56,25.56,0,0,1-5.1,1.21c-1.78.2-1.78.2-2.11,1.78-.68,3-2.26,10.13-2.59,10.65s-2.39.33-2.57-.19a3.2,3.2,0,0,1,.19-1.62c1.39-5.9,5.12-21.75,5.68-23.75.75-3.14.65-3,3.68-2.9C188.77.46,189.33.48,190.24.48Zm-4.92,12.9a15.2,15.2,0,0,0,3.85-.54c3-.64,4.69-2.85,4.7-6.29,0-1.55-.49-2.52-1.73-2.76a12.54,12.54,0,0,0-4.74-.28,5.92,5.92,0,0,0-.29,1.2C186.36,7.46,185.32,13.39,185.32,13.39Z"/>
    <path d="M241,25.8c3.49,0,5-.08,8-.06,1.51,0,2.78-.09,4.5,0s1.36.38,1.48,1.58-.09,1.49-1.48,1.56-9.58.23-13.72.26l-.51,0c-3.13.09-3.71.32-3-3,.13-.95,5.32-23.84,5.48-24.28.38-1.39.55-1.39,2-1.25s1.08.46.87,1.94c-.49,2.67-5,22.06-5.27,23.32Z"/>
    <path d="M233.7,4.5q-2.27,9.68-4.53,19.37c-.31,1.31-.5,2.65-.88,3.94s-.44,1.54-1.84,1.38-1.43.13-.84-2.4,4.21-19.61,5.11-23.67c.19-.87.42-2.66,1.31-2.69s.16,0,1.51.14S234.16,2.48,233.7,4.5Z"/>
    <path d="M81.2,8.86c-1,4.56-3.58,17.07-4,18.73-.4,1.46-.39,1.63-2,1.6s-1.14-1.42-.94-2.42c.45-2.25,5-24,5.18-24.76C79.73,1,79.69.5,81.36.57c1.69.25,1.3,1.09,1.25,2.09C82.61,2.82,81.62,6.95,81.2,8.86Z"/>
    <path d="M293.16,3.05c-.21,1.29-4.82,23.09-5.23,24.75s-.69,1.54-1.86,1.44c-1.53-.13-1.38-.05-1-2.32.46-1.93,5.19-24.35,5.22-24.51.34-2,.63-1.85,1.86-1.77S293.73.24,293.16,3.05Z"/>
    <path d="M331.94,4.93h-2.13s-.31,1.5-.55,2.26,0,.62-.83.65-.77.25-.52-1c.26-1.46,1-4.08,1.23-5s.07-1,.73-1.07.94-.35.7.74c-.16.72-.47,2.09-.47,2.09l2.23,0s.17-1,.31-1.87,0-1,1-1c.76-.05.48,0,.22,1.59-.25,1.44-.76,4.67-.84,5.08s.07.49-.63.54-.78.12-.71-.32C331.75,6.93,331.94,4.93,331.94,4.93Z"/>
    <path d="M318.71,2.29c-.8,0-.7.23-.69-.72s.09-.8,1-.83,6-.08,7-.08.86-.16.89.65.14.86-.74.89-2.78.06-2.78.06l-.1.42-.92,4.24c-.17.77-.14.94-.35.94a6.41,6.41,0,0,1-1.36-.05c-.06-.09,1.12-5.51,1.12-5.51S319.51,2.28,318.71,2.29Z"/>
    <path d="M321.16,11.52c-2.66-.06-2.66-.06-2.67-.54s-.14-.61,1.7-.61,9.57.08,11.63.1,2,.08,2.05.51.11.6-1.8.61S323.82,11.58,321.16,11.52Z"/>
    <path d="M312.15,1.24c-3.44-1-7.1-1-10.19.91C299.64,3.59,298,6.51,298.76,9a6.7,6.7,0,0,0,5.35,5c1.14.27,2.54.35,3.83.53-.11.89-2.4,12.8-2.69,14-.16.66.44.66,1.25.66s1.31.24,1.56-.41,2-9.78,2.84-13.85c.76-3.76,1.6-7.5,2.39-11.25C313.65,1.42,313.47,1.61,312.15,1.24Zm-3.54,9.87a6.8,6.8,0,0,1-2.7,0c-2-.27-3.31-.7-3.9-2.32a3.82,3.82,0,0,1,1.57-4.31,7.43,7.43,0,0,1,4.56-.89c.94.13,1.94.35,1.94.35Z"/>
    <path d="M0,22.07c.21-2.14,3.37-15.39,3.57-16C5.27.85,8.72-.14,13.47.72c2.19.4,3.49,2.12,4.08,4.23.4,1.74-.83,2-2.2,1.82C14.68,6.48,14.46,5.64,14,5a3.88,3.88,0,0,0-6.39.15,10.68,10.68,0,0,0-1.3,2.73C5.23,12.2,4.54,16,3.62,20.36c-.57,2.69.47,5.06,4.27,5.45,2.62.35,4.7-.32,6.06-2.72.19-.34.51-1.11.81-1.22a3.46,3.46,0,0,1,2,.08c.29.11.14,1,.07,1.48a6.94,6.94,0,0,1-6,5.64,11.19,11.19,0,0,1-8-1.37A6.19,6.19,0,0,1,0,22.07Z"/>
  </g>
</svg>
