<svg viewBox="671 31 282 84" version="1.1" xmlns="http://www.w3.org/2000/svg" xmlns:xlink="http://www.w3.org/1999/xlink">
  <g id="SVG-Logo" stroke="none" stroke-width="1" fill="none" fill-rule="evenodd" transform="translate(672.000000, 32.000000)">
      <path d="M41.1354386,49.9871467 C41.2778947,51.1371202 41.6266667,54.4451291 43.6996491,55.4189365 C44.8982456,55.986583 47.1726316,55.6293572 48.3515789,53.9802462 C49.4421053,52.4583664 49.9431579,50.7750009 50.6947368,48.8322797 C51.4463158,46.8895584 52.1684211,45.1034294 52.9740351,43.2683652 C53.7796491,41.4333011 54.4477193,39.4856864 55.3614035,37.7191313 C56.2259649,36.0895944 57.0315789,34.2104887 58.2449123,32.825627 C59.438059,31.4268837 61.015803,30.4062906 62.7838596,29.8895244 C63.6631579,29.6301687 64.6161404,29.4882571 65.1270175,28.6221068 C65.3477105,28.3171709 65.3807327,27.9155613 65.2127936,27.5789141 C65.0448544,27.242267 64.7035771,27.025955 64.3263158,27.0170374 C62.7494737,26.8800193 60.917193,28.3970056 59.762807,29.2925169 C59.0067421,29.9261569 58.302095,30.618293 57.6554386,31.3624692 C56.7700662,32.4977004 55.9626173,33.6911653 55.2385965,34.9347274 C54.8112281,35.6638595 54.3445614,36.4761812 53.9761404,37.2395679 C53.1152788,39.0236431 52.3447215,40.8495797 51.6673684,42.7105058 C50.9992982,44.5357829 48.2778947,51.5677486 47.3789474,52.8449532 C46.9859649,53.4028127 45.9445614,54.3130045 44.7803509,54.1221578 C44.0385965,53.9998202 43.4835088,53.2462206 43.154386,52.6541065 C42.7665094,51.7726634 42.5482245,50.8265045 42.5108772,49.8648091 C42.5803716,48.4945816 42.7994406,47.1359667 43.1642105,45.8129875 C43.3115789,45.4068266 43.4245614,44.9859853 43.5424561,44.5651439 C43.8077193,43.6598456 44.0877193,42.7594408 44.3677193,41.859036 C44.9328597,40.1071431 45.588709,38.3855857 46.3326316,36.7012824 C46.6961404,35.8498127 47.2364912,35.125574 47.6294737,34.2936783 C47.8898246,33.7504993 48.2484211,32.7913725 47.6687719,32.3362766 C46.2785965,31.2107706 45.2126316,34.8466443 44.9375439,35.5610959 C44.2694737,37.4010536 43.837193,39.2997332 43.154386,41.1347974 C42.4715789,42.9698615 41.7936842,44.8049256 41.0715789,46.6253092 C40.363235,48.2730096 39.5272616,49.863305 38.5712281,51.3817954 C38.1536842,52.047312 36.4442105,54.2151344 34.8624561,54.1172643 C32.8238596,53.9900332 32.5094737,51.7585953 32.5585965,50.3443725 C32.6224561,48.5729239 33.4673684,46.5812677 33.9536842,44.8685412 C34.44,43.1558146 34.8919298,41.257135 35.4912281,39.4856864 C35.8007018,38.5754946 36.9649123,35.1647221 37.205614,34.3524004 C37.5249123,33.3736995 37.8491228,32.3656376 38.1487719,31.3673627 C38.4877044,30.4880176 38.6898015,29.5622542 38.7480702,28.6221068 C38.7480702,28.4116861 38.7480702,29.2044338 38.7480702,28.6221068 C38.8247198,27.8070354 38.3669589,27.0351723 37.6133333,26.7087466 C36.8961404,26.3564143 36.2035088,26.5178999 35.4273684,26.7087466 C34.6474709,26.9322232 33.898373,27.2510988 33.197193,27.6580864 C32.4903845,28.0186545 31.8305121,28.4640093 31.2322807,28.9842261 C30.7164912,29.4735766 29.7585965,30.3837684 29.9059649,31.1911966 C30.0533333,31.9986248 31.0014035,31.8616067 31.5319298,31.5973574 C32.357193,31.1814096 32.9417544,30.3837684 33.6196491,29.7818673 C34.2708411,29.2045543 35.0041529,28.7263431 35.7957895,28.3627511 C36.645614,27.9761642 37.4561404,28.0985018 37.2694737,29.2093273 C37.1270175,30.1293061 35.0835088,36.3832047 34.9508772,36.7306435 C34.6463158,37.5331782 32.0035088,46.5176521 31.7922807,47.3446544 C31.36,49.0182328 30.9915789,50.8239359 31.3698246,52.5415559 C31.6989474,54.0389683 33.1922807,55.5559546 34.7838596,55.6391442 C36.5866667,55.7321208 37.6477193,54.4206616 38.6842105,53.1189895 C39.3031579,52.3409223 39.8238596,51.504133 40.4084211,50.7015983 C40.5214035,50.5107516 41.1010526,49.7228975 41.1354386,49.9871467 Z" id="Shape"  stroke-width="1.5" ></path>
      <path d="M145.978246,41.1054363 C152.825965,41.7318049 152.477193,47.9025138 155.208421,52.5562365 C156.814737,55.2917054 160.543158,53.7404645 161.564912,52.7226156 C163.446316,50.8435099 163.613333,50.2758634 164.286316,49.5516248 C165.195088,48.5973915 166.673684,48.9839783 166.133333,50.4911776 C165.705965,51.6705122 164.276491,52.639426 163.333333,53.4028127 C162.390175,54.1661994 161.201404,55.1057522 159.968421,55.4482975 C157.695454,56.1642276 155.224723,55.2510718 153.970526,53.2315401 C152.457544,50.960954 152.005614,48.1716566 150.644912,45.827668 C149.387368,43.6451651 147.422456,42.402215 144.592982,42.3434929 C143.610526,42.3190254 142.053333,41.9226516 141.409825,42.8328434 C141.115088,43.2487912 140,46.0331952 139.263158,47.7263477 C138.845614,48.7050486 137.789474,50.5156452 136.861053,52.6638936 C136.443509,53.6083399 135.677193,55.2134093 134.404912,55.2721314 C132.44,55.3651079 133.736842,52.8253792 134.316491,52.1990106 C136.517193,49.9039571 138.423158,46.0527692 138.934035,44.8587542 C139.99406,42.3032558 140.816227,39.6561695 141.390175,36.9508512 C141.655439,35.7959841 141.925614,34.6068626 142.13193,33.4422086 C142.230175,32.8843491 142.898246,29.8650569 142.544561,29.5616596 C142.190877,29.2582624 140,30.4082359 139.479298,30.6773786 C138.634386,31.1129005 137.096842,32.4047856 136.070175,31.8811807 C134.905965,31.2890667 135.991579,30.1635607 136.743158,29.8112284 C138.015439,29.2142208 140.21614,28.6563613 140.908772,28.3970056 C142.30386,27.8782941 143.340351,27.4917073 144.76,27.0463984 C146.054422,26.694573 147.387623,26.5039045 148.729123,26.4787519 C151.185263,26.4787519 153.597193,27.158949 154.957895,29.3023039 C155.753684,30.555041 155.719298,32.0377728 155.449123,33.4471021 C155.178947,34.8564313 154.058947,36.1581035 153.425263,36.8236201 C150.620351,39.7597226 146.459649,40.6650209 145.924211,41.0907558 L145.978246,41.1054363 Z M151.180351,28.4116861 C149.548022,27.8881354 147.793469,27.8778841 146.155088,28.3823251 C144.627368,28.847208 144.622456,28.7150834 144.312982,30.1390931 C144.106667,31.117794 142.701754,38.1742272 142.534737,38.9474009 C142.367719,39.7205746 142.254737,40.3518367 143.025965,40.2246056 C146.268747,39.6729772 149.319802,38.3165259 151.897544,36.2804411 C154.044211,34.4306964 154.044211,32.6837154 154.044211,32.223726 C154.039298,30.574615 153.459649,29.1506053 151.234386,28.4263666 L151.180351,28.4116861 Z" id="Shape"  stroke-width="1.5" ></path>
      <path d="M199.438596,52.9868648 C201.21193,52.7764442 202.489123,53.1972855 203.815439,53.5055763 C205.102768,53.8281431 206.419267,54.0215844 207.745263,54.0830098 C209.184235,54.1045921 210.605877,53.7682007 211.881404,53.1043089 C213.025842,52.5961962 214.052653,51.8581855 214.897544,50.9364865 C215.487018,50.2660764 216.528421,48.8665342 217.589474,49.6886429 C219.741053,51.3573279 213.998596,54.0927968 212.903158,54.4891707 C211.614903,54.9365696 210.287837,55.2642012 208.938947,55.4678715 C207.303158,55.7174403 205.745965,55.42383 204.110175,55.2721314 C202.754386,55.1497937 201.423158,54.7534199 200.067368,54.6946978 C198.534737,54.6310823 197.326316,55.1840483 195.882105,55.5510611 C192.18807,56.4906139 195.204211,51.7292342 196,49.8648091 C196.491228,48.7099421 197.910877,45.1425774 198.824561,42.7790148 C199.25193,41.6779763 199.728421,40.6356599 200.111579,39.5199409 C200.54386,38.2574168 201.094035,37.0731888 201.452632,35.7715166 C201.53614,35.4485453 201.94386,34.4258029 201.452632,34.2643173 C201.265965,34.2007017 200.332632,34.8123898 200.190175,34.8760053 C199.207719,35.3164207 197.090526,35.9134282 196.599298,34.9934494 C195.82807,33.5253981 197.581754,33.4568891 198.436491,33.2268944 C199.954386,32.8109465 201.38386,32.1405364 202.975439,31.9986248 C204.0414,31.8637349 205.119455,31.8522401 206.18807,31.9643703 C207.740351,32.1698974 209.066667,32.1503234 210.638596,32.262874 C213.792281,32.4977622 216.322105,31.2205576 218.901053,29.7133583 C219.608421,29.2974104 220.993684,28.6221068 221.268772,29.8895244 C221.54386,31.156942 219.510175,32.0524533 218.567018,32.3803181 C215.894737,33.3149774 213.207719,33.9364525 210.368421,33.7651798 C208.973333,33.6819903 207.58807,33.2758294 206.197895,33.1388113 C204.640702,32.9724321 204.552281,33.5449722 203.66807,35.3408882 C202.836842,36.8962203 202.177992,38.5370477 201.703158,40.2343926 C201.42807,41.4186206 203.039298,41.5898933 203.967719,41.7269114 C204.710141,41.8566204 205.464481,41.9058425 206.217544,41.8737165 C206.870877,41.8345685 207.691228,41.4724492 208.329825,41.6975504 C209.528421,42.1232852 208.452632,43.3809158 207.455439,43.4934664 C205.86386,43.6696326 204.252632,43.3026198 202.685614,43.0726251 C202.233684,43.0090095 201.059649,42.6860382 200.671579,42.945394 C200.283509,43.2047497 200.082105,44.0464324 199.875789,44.5113153 C198.534737,47.535501 196.437193,53.0162259 196.127719,53.696423 C197.204245,53.3483363 198.313617,53.1105856 199.438596,52.9868648 L199.438596,52.9868648 Z" id="Shape"  stroke-width="1.5" ></path>
      <path d="M274.527719,30.002075 C275.520821,30.6501954 276.281225,31.5962096 276.698947,32.7032894 C277.534035,34.7830287 277.190175,37.1416978 276.846316,39.2752657 C276.08,43.8360117 274.915789,48.2254851 272.032281,52.08646 C270.892632,53.6132334 268.858947,55.443404 266.73193,55.6440377 C264.251228,55.8740324 262.389474,54.4891707 261.294035,52.5415559 C259.06386,48.5778174 261.072982,43.4053834 262.841404,39.6324915 C263.779649,37.6261548 264.496842,35.7176881 265.607018,33.7602863 C269.242105,27.4868138 273.505965,29.361026 274.527719,30.002075 Z M272.82807,31.3771497 C271.335268,31.1351071 269.818023,31.6358762 268.765614,32.7179699 C266.176842,35.3066337 264.388772,39.4514319 263.234386,42.8034823 C262.517193,44.8783282 261.824561,46.9189195 262.001404,49.0671679 C262.14386,50.7652139 262.816842,52.3849638 264.570526,53.3391971 C268.117193,55.2672379 271.339649,50.359053 272.366316,47.9563424 C273.191579,45.9989407 274.331228,42.9258199 274.547368,42.0400957 C274.842105,40.8411871 275.672281,37.2591419 275.672281,35.3898233 C275.770721,33.5577221 274.594131,31.8977632 272.82807,31.3771497 L272.82807,31.3771497 Z" id="Shape"  stroke-width="1.5" ></path>
      <path d="M240.377544,51.5775356 C242.067368,54.6898043 247.86386,54.5136382 250.786667,50.0605493 C251.260881,49.358893 251.659351,48.6092884 251.975439,47.8242178 C252.334772,46.7341237 252.752924,45.6641513 253.22807,44.6189724 C253.537544,44.0317519 253.910877,43.3270873 254.701754,43.4004899 C255.851228,43.5032535 255.954386,44.6776945 255.728421,45.5389513 C255.207719,47.496353 253.557193,49.3314171 252.319298,50.872871 C250.035088,53.70621 245.962807,56.8037982 242.003509,55.2476638 C238.132632,53.7306775 236.924211,49.0231263 237.385965,45.3627851 C237.877193,41.4724492 239.419649,37.4059471 241.153684,33.902198 C242.887719,30.3984489 246.316491,25.1232512 251.179649,26.8115102 C252.943158,27.4231982 254.362807,29.0478417 255.325614,30.555041 C255.782456,31.2645991 256.180351,32.0720274 255.959298,32.9186036 C255.689123,33.96092 254.647719,34.523673 253.856842,33.5547592 C253.22807,32.786479 252.933333,31.4407653 252.466667,30.5403605 C251.981434,29.6158692 251.155791,28.9143871 250.162807,28.5829588 C247.578947,27.5259618 245.501053,30.1195191 244.26807,32.0084118 C242.998656,33.97686 241.96651,36.0874638 241.192982,38.2965649 C239.365614,43.0628381 238.348772,47.8437918 240.377544,51.5775356 Z" id="Shape"  stroke-width="1.5" ></path>
      <path d="M82.1038596,31.8322456 C81.2982456,30.9465214 81.3129825,29.458896 82.8505263,29.7231453 C84.0442105,29.923779 84.9529825,31.4554458 86.0189474,32.0328793 C87.1491969,32.6984378 88.4148539,33.1031039 89.722807,33.2171074 C90.4792982,33.2709359 90.5677193,33.3443385 90.9066667,32.7277569 C91.3978947,31.8371391 91.5059649,31.2890667 91.8350877,30.5990825 C92.6947368,28.798273 95.3031579,25.8768509 97.5382456,26.625557 C100.642807,27.66298 98.1768421,31.5875704 96.6736842,32.81584 C95.7090064,33.6165277 94.5347045,34.1258804 93.2891228,34.2838913 C92.0512281,34.4013354 91.7810526,34.8026028 91.2996491,36.0308723 C90.3663158,38.414009 89.4624561,40.3958782 88.637193,42.3483864 C88.0968421,43.6206976 85.557193,49.4341807 85.9207018,49.806087 C86.7359621,50.589476 87.5936169,51.3278665 88.4898246,52.017951 C89.8652632,53.114096 94.2470175,55.443404 98.2014035,52.8204857 C99.7157766,51.8095494 100.9818,50.4714226 101.905263,48.9056822 C102.420389,48.0319105 103.022741,47.212171 103.703158,46.4589301 C104.194386,45.9206446 106.159298,44.2030246 106.159298,46.0625562 C106.159298,47.2369973 104.597193,48.3967578 103.830877,49.1405704 C102.958751,49.984411 102.138547,50.8799193 101.374737,51.8222108 C99.9354386,53.6034464 97.6708772,55.1008587 95.3522807,55.3895755 C92.6849123,55.7223338 90.0961404,54.7485264 87.9347368,53.2413271 C87.3725527,52.8821875 86.8533971,52.4602414 86.3873684,51.9836965 C86.0336842,51.6020031 85.6161404,51.0049956 85.2624561,51.1175462 C85.0463158,51.1909488 84.8203509,52.1549691 84.5747368,52.7079351 C84.2847447,53.3476455 83.8783636,53.928341 83.3761404,54.4206616 C82.5852632,55.1938353 81.2687719,55.9621155 80.1340351,55.6195702 C78.6210526,55.1644743 78.2378947,53.7796125 78.3459649,52.659 C78.4589474,51.455198 79.5494737,50.1388453 80.8021053,49.4195002 C81.5742,49.0295218 82.4225419,48.8124014 83.2877193,48.7833446 C84.0884211,48.7833446 84.5796491,49.0720614 84.7319298,48.8763212 C85.3401263,47.7880391 85.8339697,46.6401423 86.205614,45.4508682 C87.0554386,43.0530511 88.8582456,38.8837854 89.6098246,36.8774486 C90.1550877,35.4093973 90.4940351,34.7487742 90.3319298,34.3964419 C89.9880702,34.3426134 84.2259649,34.1664472 82.1038596,31.8322456 Z M92.6947368,32.9822192 C94.6596491,33.4715696 98.5894737,30.4131294 97.6070175,28.2012654 C96.9831579,26.8506582 95.5045614,28.1180759 94.8561404,28.7346574 C93.7017544,29.8356959 93.0975439,31.4799133 92.714386,32.9871127 C92.8077193,33.0066867 92.8421053,32.3215961 92.6947368,32.9822192 Z M83.5529825,49.9577857 C82.3568061,49.9541665 81.2095229,50.4303739 80.3698246,51.2790318 C79.8098246,51.8760394 79.0533333,53.4566413 80.0849123,53.9753527 C81.0084211,54.4353421 82.4722807,53.2706881 82.9291228,52.600278 C83.2778947,52.08646 84.7024561,50.0703363 83.5529825,49.9577857 C83.3221053,49.9724662 83.562807,49.9577857 83.5529825,49.9577857 L83.5529825,49.9577857 Z" id="Shape"  stroke-width="1.5" ></path>
      <path d="M179.352281,50.4030946 C181.317193,45.4704422 183.542456,39.006123 184.652632,36.7012824 C185.571228,34.8026028 186.666667,32.6739284 188.420351,31.4162978 C189.825263,30.4375969 192.119298,29.1163507 193.941754,29.3023039 C194.924211,29.400174 195.317193,30.3250463 194.516491,31.0248174 C193.622456,31.8077781 192.060351,31.7784171 190.969825,32.1698974 C188.832982,32.9381776 187.565614,35.1402546 186.465263,37.0389342 C184.588772,40.2833276 181.715088,49.1356769 180.521404,51.5334941 C179.538947,53.4908958 178.286316,55.0861782 175.501053,55.6048897 C173.295439,56.015944 171.178246,54.7142719 170.097544,52.8253792 C169.016842,50.9364865 169.164211,48.3918643 169.606316,46.400208 C170.10125,44.3819095 170.829876,42.4277209 171.777544,40.5769379 C172.804211,38.423796 174.233684,36.172784 174.872281,33.8728369 C175.103158,33.0311542 175.456842,31.5875704 174.115789,31.8420326 C173.04,32.0475598 171.875789,33.1828528 171.119298,33.902198 C170.534737,34.4600575 169.095439,35.4485453 168.564912,34.2007017 C168.186667,33.3051904 169.768421,32.2188325 170.382456,31.7833106 C171.330526,31.1129005 172.460351,29.9286725 173.629474,29.7280388 C174.732024,29.460616 175.854892,30.0860795 176.203509,31.1618355 C176.905965,33.7798604 174.985263,36.9459577 174.007719,39.2459047 C172.828772,42.0156281 171.271579,44.9664112 170.814737,47.9612359 C170.426667,50.4862841 170.814737,53.7796125 174.395789,54.3227915 C174.385965,54.317898 177.716491,54.4549161 179.352281,50.4030946 Z" id="Shape"  stroke-width="1.5" ></path>
      <path d="M113.601404,41.6681893 C114.151579,40.9879922 114.52,39.8673797 114.927719,39.0697385 C115.335439,38.2720973 115.74807,37.4059471 116.175439,36.5691578 C117.006083,34.9008475 117.96521,33.2991426 119.044211,31.7784171 C119.785965,30.7409942 121.500351,28.1816914 122.851228,29.8210154 C124.202105,31.4603393 123.627368,34.1370862 123.48,36.0798074 C123.150877,40.5377898 122.006316,44.8244996 122.183158,49.3265236 C122.256842,51.0881852 122.605614,53.3979192 124.639298,53.6915295 C126.564912,53.9704592 128.279298,52.5660235 129.301053,50.9903151 C129.635088,50.4716036 130.529123,49.1797185 131.295439,49.8794896 C132.061754,50.5792607 130.877895,51.7977433 130.504561,52.2968807 C129.266667,53.9362047 127.935439,55.2329833 125.906667,55.5951026 C120.375439,56.6227386 120.763509,49.3950327 120.994386,45.6759694 C121.077895,44.2079181 120.468772,44.5749309 119.21614,44.5357829 C118.128833,44.4990314 117.045462,44.3862029 115.974035,44.1981311 C114.858947,44.0072844 114.701754,43.6353781 114.210526,44.8489671 C113.773333,45.9255381 113.311579,46.972748 112.825263,48.0199579 C111.931228,49.9479987 110.752281,52.0130575 109.239298,53.4811088 C108.797193,53.9117372 105.225965,56.7499697 105.609123,54.4108746 C105.761404,53.4957893 107.574035,52.4534729 108.183158,51.8956134 C108.936016,51.173735 109.612541,50.3768149 110.202105,49.5173703 C110.818403,48.5610638 111.338355,47.5464434 111.754386,46.4882911 C112.024561,45.847242 113.090526,43.8262247 112.830175,43.1607082 C112.338947,41.898184 107.549474,41.5360647 108.335439,39.3976033 C108.826667,38.1008247 110.098947,39.4612189 110.649123,39.8869538 C111.410526,40.4741743 112.663158,41.5018102 113.596491,41.6584023 C113.640702,41.5947868 113.267368,41.5947868 113.601404,41.6681893 Z M122.409123,35.6638595 C122.541754,34.7096262 123.003509,32.3167026 122.222456,31.5631029 C121.038596,30.4229164 119.672982,32.9675386 118.896842,34.2447433 C117.583949,36.3911263 116.461339,38.6474129 115.541754,40.9879922 C115.394386,41.3501116 115.025965,41.9666931 115.271579,42.2896644 C115.428772,42.5049786 116.710877,42.7007187 117.005614,42.7790148 C118.022456,43.0285835 120.178947,43.5032535 121.146667,43.0579446 C121.185965,42.8866719 122.060351,38.1693337 122.409123,35.658966 L122.409123,35.6638595 Z" id="Shape"  stroke-width="1.5" ></path>
      <path d="M77.8891228,75.2718835 C77.2603509,75.3306056 74.6961404,75.3159251 74.2785965,75.4969847 C73.5614035,75.810169 73.3992982,77.1705632 73.1929825,77.8996954 C72.8540351,79.1083909 72.52,80.3464475 72.2105263,81.5845041 C71.96,82.631714 70.6729825,82.3087428 70.805614,81.496421 C70.9578947,80.5764422 71.3754386,79.2013675 71.6063158,78.3156432 C71.9992982,76.8475919 72.4463158,75.3795406 72.8392982,73.8870218 C73.1635088,72.6685392 74.0133333,68.6216112 74.2442105,67.9609881 C74.4750877,67.300365 74.3670175,67.0410093 75.1578947,67.0410093 C75.6884211,67.0410093 75.5557895,67.4520636 75.3985965,68.2839594 C75.2414035,69.1158551 74.042807,73.6129856 74.4161404,73.9212763 C74.5831579,74.063188 77,73.9604244 77.56,73.9212763 C77.8891228,73.8870218 78.7978947,73.9212763 79.082807,73.7304297 C79.4757895,73.4466064 80.3305263,68.1028997 80.5564912,67.1878144 C80.5564912,67.1878144 80.6792982,66.9578197 81.2736842,67.0556898 C81.7059649,67.1290923 81.882807,67.0801573 81.7649123,67.5890817 C81.2294737,70.0015794 80.4287719,74.4399878 79.8540351,76.8524854 C79.4414035,78.5896795 79.1712281,80.0577308 78.6947368,81.437699 C78.5375439,81.9025819 78.4835088,82.3381038 77.8694737,82.1961922 C77.2554386,82.0542805 77.3782456,81.9025819 77.4322807,81.427912 C77.6631579,79.9598607 78.9796491,75.5557068 78.8126316,75.3648601 C78.645614,75.1740134 77.8891228,75.3306056 77.8842105,75.276777 C77.2554386,75.3306056 77.8891228,75.2816705 77.8891228,75.2718835 Z" id="Shape"  stroke-width="0.75" ></path>
      <path d="M101.404211,74.7531721 C102.357193,72.5364146 103.152982,70.2217871 104.140351,68.0294971 C105.260351,65.5387034 105.977544,68.2105568 106.468772,70.1483845 C107.053333,72.453225 107.377544,74.8314681 107.942456,77.1509892 C108.212632,78.3009627 108.507368,79.4754038 108.792281,80.6204838 C109.180351,82.1864051 109.180351,82.1864051 107.745965,82.1864051 C107.593684,82.1864051 107.34807,80.7183539 107.181053,79.8815646 C106.974737,78.8392482 106.738947,77.7088487 106.547368,76.353348 C106.404912,75.3354991 106.139649,75.3746471 104.214035,75.3746471 C102.190175,75.3746471 102.337544,75.4284757 101.698947,77.2733268 C101.281404,78.4722354 99.9403509,82.1668311 99.6112281,82.1668311 C99.1494737,82.1668311 98.4470175,82.2891687 98.4470175,81.9515169 C98.4224561,81.5208886 100.500351,76.8671659 101.404211,74.7531721 Z M103.516491,72.9817235 C102.961404,74.4791358 102.750175,74.3372242 104.420351,74.3421177 C106.385263,74.3421177 106.341053,74.4791358 106.002105,73.0110845 C105.869474,72.443438 105.329123,69.4045719 104.990175,69.0962811 C104.793684,68.9152214 103.752281,72.355355 103.521404,72.9817235 L103.516491,72.9817235 Z" id="Shape"  stroke-width="0.75" ></path>
      <path d="M62.0912281,71.5430332 C62.8575439,69.9281768 63.8105263,68.1567282 65.7017544,67.310152 C66.6101644,66.8696247 67.6948733,67.0121588 68.4575439,67.6722713 C69.0680912,68.3446485 69.4166328,69.212672 69.44,70.1190235 C69.44,70.3783792 69.2729825,70.4713558 68.5459649,70.3783792 C68.1333333,70.3245507 68.3052632,69.7520107 68.2217544,69.3996783 C67.9368421,68.2741724 67.1852632,67.7897154 66.1585965,68.3328944 C64.5621053,69.1696836 63.3733333,71.5626073 62.8035088,73.1627832 C62.1452632,75.0027408 61.88,77.6060851 62.8919298,79.3873207 C63.9038596,81.1685562 65.9621053,81.5893976 66.954386,79.700505 C67.2976525,79.052108 67.5410767,78.3559697 67.6764912,77.6354461 C67.7157895,77.4201319 68.7473684,77.469067 68.7424561,77.6843812 C68.7250621,78.4118899 68.5578653,79.1280881 68.2512281,79.788588 C67.3473684,81.7117352 65.5052632,82.6904361 63.4814035,81.7459898 C61.6196491,80.8798395 61.0252632,78.4184068 61.0252632,77.0824801 C60.9775824,75.181203 61.3411318,73.2919642 62.0912281,71.5430332 L62.0912281,71.5430332 Z" id="Shape"  stroke-width="0.75" ></path>
      <path d="M82.442807,82.0983221 C82.5895684,81.0871862 82.8028938,80.0867545 83.0814035,79.1034974 C83.44,77.5718306 84.84,71.308145 85.1936842,69.9771119 C85.9845614,66.9822872 85.5719298,67.0410093 86.922807,67.0410093 C87.4140351,67.0410093 86.362807,71.0194283 86.2154386,71.6996254 C85.925614,73.0208715 84.7712281,78.2862822 84.4568421,79.5977414 C84.3487719,80.0528373 84.0392982,81.4817405 83.8329825,82.0934286 C83.754386,82.3283168 82.4329825,82.2695947 82.442807,82.0983221 Z" id="Shape"  stroke-width="0.75" ></path>
      <path d="M19.6245614,51.9445484 C21.5010526,52.1892236 20.8575439,55.5168066 18.9810526,54.919799 C18.6101539,54.8260885 18.2960044,54.5811391 18.1155979,54.2449848 C17.9351915,53.9088304 17.9052031,53.5125418 18.0329825,53.153244 C18.3277193,52.3409223 18.7354386,51.9445484 19.6245614,51.9445484 C19.6933333,51.9543354 19.4821053,51.9445484 19.6245614,51.9445484 Z" id="Shape"  stroke-width="1.5" ></path>
      <path d="M90.2189474,71.5919683 C90.9852632,69.9771119 91.9382456,68.2056633 93.8294737,67.359087 C94.7378837,66.9185597 95.8225926,67.0610938 96.5852632,67.7212064 C97.1958105,68.3935836 97.5443521,69.261607 97.5677193,70.1679585 C97.5677193,70.4273143 97.4007018,70.5202908 96.6736842,70.4273143 C96.2610526,70.3734857 96.4329825,69.8009457 96.3494737,69.4486134 C96.0645614,68.3231074 95.3129825,67.8386505 94.2863158,68.3818294 C92.6898246,69.2186187 91.5010526,71.6115423 90.9312281,73.2117182 C90.2729825,75.0516758 90.0077193,77.6550201 91.0196491,79.4362557 C92.0315789,81.2174913 94.0898246,81.6383327 95.0821053,79.74944 C95.4253718,79.1010431 95.668796,78.4049048 95.8042105,77.6843812 C95.8435088,77.469067 96.8750877,77.518002 96.8701754,77.7333162 C96.8527814,78.4608249 96.6855846,79.1770231 96.3789474,79.8375231 C95.4750877,81.7606703 93.6329825,82.7393711 91.6091228,81.7949248 C89.7473684,80.9287745 89.1529825,78.4673419 89.1529825,77.1314152 C89.1053017,75.230138 89.4688511,73.3408993 90.2189474,71.5919683 Z" id="Shape"  stroke-width="0.75" ></path>
      <path d="M153.263158,82.1423636 C153.409919,81.1312278 153.623245,80.130796 153.901754,79.147539 C154.260351,77.6158721 155.660351,71.3521866 156.014035,70.0211534 C156.804912,67.0263287 156.392281,67.0850508 157.743158,67.0850508 C158.234386,67.0850508 157.183158,71.0634698 157.035789,71.7436669 C156.745965,73.0649131 155.591579,78.3303237 155.277193,79.6417829 C155.169123,80.0968788 154.859649,81.5257821 154.653333,82.1374701 C154.589474,82.3723583 153.263158,82.3136363 153.263158,82.1423636 Z" id="Shape"  stroke-width="0.75" ></path>
      <path d="M164.630175,80.7428214 C168.068772,80.8064369 167.513684,80.5177202 167.513684,81.8634339 C167.513684,82.3527843 164.870877,82.1227896 164.173333,82.1423636 C164.173333,82.1423636 158.936842,82.1815116 158.814035,82.0640675 C158.691228,81.9466234 159.305263,79.6173154 159.452632,79.0692429 C159.811228,77.537576 161.211228,71.2738905 161.564912,69.9428573 C162.355789,66.9480327 161.943158,67.0067547 163.294035,67.0067547 C163.785263,67.0067547 162.734035,70.9851737 162.586667,71.6653708 C162.296842,72.986617 160.518596,80.6155903 160.577544,80.7379279 C160.636491,80.8602655 164.630175,80.7428214 164.630175,80.7428214 Z" id="Shape"  stroke-width="0.75" ></path>
      <path d="M123.622456,72.5951367 C124.187368,71.0243218 124.791579,69.0620265 126.078596,67.872905 C128.441404,65.641467 131.359298,68.1224737 131.192281,71.3913346 C131.116191,73.0367847 130.905908,74.6733462 130.563509,76.2848389 C130.214737,77.8899084 129.119298,80.292619 128.230175,81.1000472 C124.865263,84.1340199 121.893333,81.0608992 122.600702,77.1852437 C122.841884,75.6349189 123.183177,74.1017017 123.622456,72.5951367 L123.622456,72.5951367 Z M124.506667,80.7526084 C125.567719,81.5893976 127.311579,80.9581356 128.269474,79.225835 C129.47758,77.0230577 130.080811,74.5417121 130.018246,72.0323837 C130.018246,70.0749819 129.807018,69.2577667 128.86386,68.6069306 C127.842105,67.882692 126.579649,68.9641565 126,69.7617977 C125.333339,70.7765527 124.835694,71.8919727 124.526316,73.0649131 C124.177544,74.1610581 123.509474,77.3369424 123.54386,78.4967029 C123.558596,79.2747701 123.548772,80.0039022 124.506667,80.7428214 L124.506667,80.7526084 Z" id="Shape"  stroke-width="0.75" ></path>
      <path d="M111.435088,77.1265217 C111.356447,75.2072549 111.742264,73.2972918 112.56,71.5577138 C113.326316,69.9428573 114.279298,68.1714088 116.170526,67.3248325 C117.078936,66.8843052 118.163645,67.0268393 118.926316,67.6869518 C119.536863,68.359329 119.885405,69.2273525 119.908772,70.133704 C119.908772,70.3930597 119.741754,70.4860363 119.014737,70.3930597 C118.602105,70.3392312 118.774035,69.7666912 118.690526,69.4143589 C118.405614,68.2888529 117.654035,67.8043959 116.627368,68.3475749 C115.030877,69.1843642 113.842105,71.5772878 113.272281,73.1774637 C112.614035,75.0174213 112.348772,77.6207656 113.360702,79.4020012 C113.360702,79.4020012 114.377544,81.980878 116.524211,80.6351643 C117.560702,79.9892217 118.027368,78.3058562 117.997895,76.7203608 C117.997895,76.4169635 118.061754,76.2750519 117.658947,76.2310104 C116.676491,76.1233533 114.711579,76.5246206 114.745965,76.2016494 C114.780351,75.8786781 114.701754,75.3795406 114.903158,75.3648601 C116.121404,75.2816705 117.555789,75.2033745 118.002807,75.2033745 C119.211228,75.2033745 119.392982,75.1446524 119.412632,75.5703873 C119.349182,76.5852775 119.157736,77.5881742 118.842807,78.5554249 C118.608321,79.5126402 118.161865,80.4054825 117.53614,81.1685562 C115.826667,82.9644723 113.341053,82.0053455 112.294737,79.9990087 C111.771563,79.128192 111.475996,78.1405649 111.435088,77.1265217 Z" id="Shape"  stroke-width="0.75" ></path>
      <path d="M60.6912281,51.9445484 C62.5677193,52.1892236 61.9242105,55.5168066 60.0477193,54.919799 C59.6768206,54.8260885 59.362671,54.5811391 59.1822646,54.2449848 C59.0018582,53.9088304 58.9718698,53.5125418 59.0996491,53.153244 C59.394386,52.3409223 59.8021053,51.9445484 60.6912281,51.9445484 C60.76,51.9543354 60.5487719,51.9445484 60.6912281,51.9445484 Z" id="Shape"  stroke-width="1.5" ></path>
      <path d="M278.830877,51.9445484 C280.707368,52.1892236 280.06386,55.5168066 278.187368,54.919799 C277.81647,54.8260885 277.50232,54.5811391 277.321914,54.2449848 C277.141507,53.9088304 277.111519,53.5125418 277.239298,53.153244 C277.534035,52.3409223 277.941754,51.9445484 278.830877,51.9445484 C278.899649,51.9543354 278.693333,51.9445484 278.830877,51.9445484 Z" id="Shape"  stroke-width="1.5" ></path>
      <path d="M131.059649,70.143491 C131.059649,70.4028467 130.892632,70.4958233 130.165614,70.4028467" id="Shape"  stroke-width="0.75"></path>
      <path d="M141.080702,7.2423864 C140.442105,7.2423864 139.670877,7.07600725 139.498947,7.8002459 C139.174737,9.18021411 138.909474,10.5846499 138.604912,11.9695116 C138.472281,12.5763061 138.334737,13.1879942 138.182456,13.7898952 C137.961404,14.680513 138.000702,14.8224246 137.362105,14.8224246 C135.927719,14.8224246 136.487719,13.9856354 136.870877,12.1505712 C137.421053,9.58148147 137.97614,7.00260469 138.501754,4.42862141 C138.629474,3.80714637 139.125614,1.135293 139.371228,0.513817954 C139.533333,0.102763591 140.034386,0.225101199 140.663158,0.225101199 C141.29193,0.225101199 140.800702,1.51209284 140.579649,2.36845609 C140.427368,2.96546362 140.039298,4.84946279 139.980351,5.52476638 C139.945965,5.90156622 139.980351,5.98475579 140.378246,6.01411682 C141.032743,6.04919276 141.68866,6.04919276 142.343158,6.01411682 L144.30807,6.01411682 C144.661754,6.01411682 146.272982,6.03858434 146.587368,5.8868857 C146.975439,5.68625203 147.397895,3.19545832 147.535439,2.51526122 C147.825263,1.04720993 147.722105,0.18105966 148.429474,0.225101199 C148.802807,0.225101199 149.461053,0.0391480346 149.505263,0.518711459 C149.496567,0.875979796 149.437026,1.23021163 149.328421,1.57081489 C149.195789,1.96718874 148.419649,5.48561835 148.115088,6.80686452 C147.992281,7.3500435 147.167018,11.8716415 147.06386,12.6301347 C146.995088,13.1537396 146.690526,14.8175311 146.572632,14.8175311 C145.541053,14.8175311 145.000702,14.8517856 145.035088,14.6168974 C145.069474,14.3820092 145.462456,12.5469451 145.683509,11.6220728 C146.017819,10.3374106 146.249421,9.02837963 146.37614,7.70726931 C146.425263,7.17877085 146.297544,7.21791888 145.830877,7.21791888 L144.794386,7.21791888 C144.13614,7.2423864 141.660351,7.2423864 141.080702,7.2423864 Z" id="Shape"  stroke-width="0.75" ></path>
      <path d="M159.32,13.4718174 C160.13945,13.4481796 160.959586,13.4726896 161.77614,13.54522 C162.115088,13.594155 162.031579,13.9220198 162.070877,14.2841391 C162.144561,15.0132713 161.334035,14.8224246 160.931228,14.8273181 C159.727719,14.8273181 158.524211,14.8273181 157.320702,14.8517856 C156.117193,14.8762531 154.800702,14.8517856 153.54807,14.8517856 C153.169825,14.8517856 152.565614,14.9594427 152.265965,14.6217909 C151.966316,14.2841391 152.21193,13.613729 152.265965,13.2124617 C152.672047,10.7852835 153.081404,8.35973656 153.494035,5.93582075 C153.695439,4.73201868 153.931228,3.53311012 154.132632,2.32930806 C154.186855,1.76470457 154.317392,1.20998525 154.520702,0.680197101 C154.781053,0.137018121 155.444211,0.244675216 155.994386,0.249568721 L161.550175,0.249568721 C162.110175,0.249568721 162.807719,0.190846669 163.357895,0.249568721 C163.741053,0.278929747 163.849123,1.28209813 163.618246,1.65400446 C163.387368,2.02591079 158.41614,1.57570839 156.8,1.77634207 C156.112281,1.85953164 156.02386,1.83506412 155.881404,2.43207165 C155.629091,3.62056357 155.437267,4.82100486 155.306667,6.02879733 C155.306667,6.36155562 156.289123,6.23921802 156.667368,6.23432451 C158.322807,6.19517648 158.730526,6.05326485 158.774737,6.59644383 C158.86807,7.65344077 158.686316,7.4674876 158.195088,7.4674876 C157.70386,7.4674876 157.212632,7.41365905 156.785263,7.40876555 C155.188772,7.37940452 155.282105,7.30600196 155.036491,7.56046418 C154.790877,7.81492641 154.054035,12.2288673 153.931228,13.535433 C153.911579,13.6675576 158.740351,13.4767109 159.32,13.4718174 Z" id="Shape"  stroke-width="0.75" ></path>
      <path d="M126.825263,9.26340369 C126.550175,10.4672058 126.417544,11.4850547 126.088421,12.9139579 C125.759298,14.3428612 126.088421,14.8322116 124.786667,14.8322116 C123.804211,14.8322116 124.295439,13.8535107 124.688421,12.4343945 C125.017544,11.2403794 125.243509,10.0267904 125.513684,8.81809479 C125.808421,7.50174213 126.073684,6.20496348 126.353684,4.90329133 C126.456842,4.4139409 126.943158,1.88889267 126.692632,1.85463814 C124.634386,1.56102788 121.780351,1.9182537 120.891228,1.79591609 C120.61614,1.75676805 120.684912,0.288716755 121.117193,0.269142738 C122.654737,0.190846669 132.950877,0.190846669 133.923509,0.269142738 C134.483509,0.288716755 134.596491,0.283823251 134.596491,0.929765822 C134.596491,2.30973404 133.653333,1.45337078 128.529825,1.83017062 C128.249825,1.85463814 127.375439,6.85090606 126.825263,9.26340369 Z" id="Shape"  stroke-width="0.75" ></path>
      <path d="M20.3810526,28.4606212 C21.7417544,29.6497427 21.5403509,31.3428952 21.0098246,32.7717985 C20.5185965,34.0979381 19.4821053,35.2479117 18.3719298,36.3098021 C15.5915789,38.9571879 12.0989474,40.0778004 10.2224561,40.5280028 C9.1122807,40.7922521 7.58947368,40.9733117 7.13754386,41.1886259 C6.34666667,41.5605322 6.06175439,42.8034823 5.78666667,43.4494249 C5.38174583,44.4174686 5.05326359,45.41551 4.80421053,46.4344625 C4.37552237,48.1574523 4.06046342,49.9065383 3.86105263,51.6705122 C3.72350877,52.8645272 3.88561404,54.9883081 2.38736842,55.5853156 C0.353684211,56.4074244 0.117894737,53.9606722 0.550175439,52.8694207 C1.0954386,51.4992395 1.71438596,50.0948038 2.30385965,48.7295161 C3.28631579,46.4638236 3.95929825,44.129622 4.76,41.819888 C5.35438596,40.112055 5.94385965,38.3944349 6.50385965,36.6866019 C6.73473684,35.9819373 6.99508772,35.2772727 7.18666667,34.5726081 C7.42245614,33.7798604 7.67789474,32.9968997 7.90385965,32.204152 C8.12982456,31.4114043 8.68982456,30.3984489 8.71438596,29.5225116 C8.71438596,28.9157171 7.94315789,29.361026 7.47649123,29.5225116 C6.85263158,29.7280388 6.22877193,29.933566 5.60982456,30.1586672 C4.93964729,30.4161785 4.25180289,30.6255044 3.55157895,30.7850357 C2.64280702,30.9709889 1.29684211,30.5207865 1.58666667,29.6008077 C1.87649123,28.6808289 2.82947368,28.4801952 3.77754386,28.304029 C4.78190604,28.154398 5.77730855,27.9501975 6.75929825,27.692341 C9.18589147,26.945973 11.7063443,26.5456259 14.245614,26.5032194 C16.3382456,26.5032194 18.8238596,27.100227 20.3810526,28.4606212 Z M9.19578947,32.835414 C8.63251462,34.7145197 8.07415205,36.5968877 7.52070175,38.482518 C7.42245614,38.8299568 6.92140351,39.9016343 7.43719298,39.9505693 C8.2963468,39.9435053 9.15000884,39.8133086 9.97192982,39.5639825 C10.5905768,39.4059618 11.1978061,39.2065056 11.7894737,38.9669749 C13.1762153,38.4510729 14.4956326,37.7708843 15.7192982,36.9410642 C17.250609,35.9304415 18.4942116,34.5432676 19.3298246,32.9137101 C19.7381262,32.0764916 19.7428444,31.0998986 19.342651,30.2588038 C18.9424577,29.417709 18.1806249,28.8030585 17.2715789,28.5878523 C15.062197,28.0400324 12.7503095,28.0518084 10.5466667,28.6221068 C10.2273684,29.2044338 9.60350877,31.4799133 9.19578947,32.835414 Z" id="Shape"  stroke-width="1.5" ></path>
      <path d="M183.591579,82.2108727 C183.73834,81.1997368 183.951666,80.1993051 184.230175,79.216048 C184.588772,77.6843812 185.988772,71.4206956 186.342456,70.0896625 C187.133333,67.0948378 186.720702,67.1535599 188.071579,67.1535599 C188.562807,67.1535599 187.511579,71.1319789 187.364211,71.812176 C187.074386,73.1334221 185.92,78.3988328 185.605614,79.710292 C185.497544,80.1653879 185.18807,81.5942911 184.981754,82.2059792 C184.903158,82.4163999 183.581754,82.3576778 183.591579,82.2108727 Z" id="Shape"  stroke-width="0.75" ></path>
      <path d="M197.729123,79.0692429 C198.087719,77.537576 199.487719,71.2738905 199.841404,69.9428573 C200.632281,66.9480327 200.219649,67.0067547 201.570526,67.0067547 C202.061754,67.0067547 201.010526,70.9851737 200.863158,71.6653708 C200.573333,72.986617 199.418947,78.2520277 199.104561,79.5634868 C198.996491,80.0185827 198.505263,82.2744882 198.436491,82.3332103 C198.367719,82.3919323 197.002105,82.543631 196.825263,82.2108727 C196.562461,81.317952 196.349272,80.4112781 196.186667,79.4949778 C195.842807,77.9584174 194.275789,71.1466594 194.010526,69.7911587 L193.494737,71.6653708 C193.204912,72.986617 192.050526,78.2520277 191.73614,79.5634868 C191.62807,80.0185827 191.318596,81.447486 191.112281,82.059174 C191.033684,82.2891687 189.712281,82.2304467 189.727018,82.059174 C189.873779,81.0480382 190.087104,80.0476064 190.365614,79.0643494 C190.724211,77.5326825 192.124211,71.268997 192.477895,69.9379638 C193.268772,66.9431392 192.85614,67.0018612 194.207018,67.0018612 L194.398596,66.9676067 C194.835789,66.757186 195.626667,70.7943271 195.788772,71.4696307 C196.103158,72.7859833 197.355789,78.0269265 197.645614,79.3432791 L197.729123,79.0692429 Z" id="Shape"  stroke-width="0.75" ></path>
      <path d="M203.830175,72.6636457 C204.395088,71.0928308 204.999298,69.1305356 206.286316,67.9414141 C208.649123,65.7099761 211.567018,68.1909828 211.4,71.4598437 C211.311794,73.1013112 211.090014,74.7329409 210.736842,76.3386675 C210.38807,77.9437369 209.292632,80.3464475 208.403509,81.1538757 C205.038596,84.1878484 202.066667,81.1147277 202.774035,77.2390723 C203.027128,75.6929276 203.379904,74.1646232 203.830175,72.6636457 L203.830175,72.6636457 Z M204.714386,80.8211174 C205.775439,81.6579067 207.519298,81.0266446 208.477193,79.2943441 C209.6853,77.0915667 210.28853,74.6102212 210.225965,72.1008927 C210.225965,70.143491 210.014737,69.3262758 209.071579,68.6754397 C208.049825,67.9512011 206.787368,69.0326655 206.207719,69.8303067 C205.541058,70.8450617 205.043414,71.9604817 204.734035,73.1334221 C204.385263,74.2295671 203.717193,77.4054514 203.751579,78.5652119 C203.766316,79.3579596 203.756491,80.0724113 204.714386,80.8260109 L204.714386,80.8211174 Z" id="Shape"  stroke-width="0.75" ></path>
      <path d="M213.065263,82.0640675 C213.212025,81.0529317 213.42535,80.0524999 213.70386,79.0692429 C214.062456,77.537576 215.462456,71.2738905 215.81614,69.9428573 C216.607018,66.9480327 216.194386,67.0067547 217.545263,67.0067547 C218.036491,67.0067547 216.985263,70.9851737 216.837895,71.6653708 C216.54807,72.986617 215.393684,78.2520277 215.079298,79.5634868 C214.971228,80.0185827 214.661754,81.447486 214.455439,82.059174 C214.376842,82.2940622 213.055439,82.2108727 213.065263,82.0640675 Z" id="Shape"  stroke-width="0.75" ></path>
      <path d="M220.222456,79.1915805 C220.646489,80.2204552 221.555855,80.9723068 222.649123,81.1979173 C224.972632,81.6530132 225.547368,79.1181779 225.22807,77.6745942 C224.878967,76.5021547 224.348631,75.3910545 223.65614,74.3812657 C223.081404,73.490648 222.216842,72.6685392 221.93193,71.6262228 C221.440702,69.8205197 222.374035,67.7114194 224.28,67.3248325 C226.038596,66.9431392 228.725614,67.3688741 228.769825,70.2609351 C228.769825,70.5741194 229.000702,70.8139011 228.032982,70.7502855 C227.345263,70.7013505 227.74807,69.8743483 227.389474,69.2332992 C227.093103,68.6300787 226.53553,68.1954634 225.876491,68.0539647 C223.528421,67.4080221 221.828772,70.2609351 223.616842,72.3602485 C224.270474,73.1372552 224.843235,73.9783564 225.326316,74.8706162 C225.931738,75.9372661 226.286143,77.1269306 226.362807,78.3498978 C226.475789,80.7966499 225.085614,82.7149036 222.531228,82.3870388 C221.33348,82.2536718 220.272338,81.556832 219.677193,80.5128267 C218.660351,78.9762663 218.345965,78.2862822 218.478596,77.8801213 C218.562105,77.6354461 218.802807,77.4935345 219.161404,77.3369424 C219.382456,77.2194983 219.392281,77.5033215 220.222456,79.1915805 Z" id="Shape"  stroke-width="0.75" ></path>
      <path d="M139.061754,73.9995724 C139.061754,73.9995724 139.602105,73.9751049 139.867368,73.9751049 C140.579649,73.9751049 143.472982,73.9310634 144.111579,73.9751049 C145.545965,74.053401 145.889825,73.578731 145.934035,74.8412552 C145.934035,75.3306056 144.244211,75.1446524 143.929825,75.1495459 C143.320702,75.1495459 140.898947,75.2229485 140.284912,75.218055 C139.88996,75.2299433 139.494647,75.218505 139.101053,75.1838005 C138.98807,75.1495459 139.017544,74.0240399 139.061754,73.9995724 Z" id="Shape"  stroke-width="0.75" ></path>
      <path d="M177.200702,80.7428214 C180.639298,80.8064369 180.084211,80.5177202 180.084211,81.8634339 C180.084211,82.3527843 177.441404,82.1227896 176.74386,82.1423636 C176.74386,82.1423636 171.507368,82.1815116 171.384561,82.0640675 C171.261754,81.9466234 171.875789,79.6173154 172.023158,79.0692429 C172.381754,77.537576 173.781754,71.2738905 174.135439,69.9428573 C174.926316,66.9480327 174.513684,67.0067547 175.864561,67.0067547 C176.355789,67.0067547 175.304561,70.9851737 175.157193,71.6653708 C174.867368,72.986617 173.089123,80.6155903 173.14807,80.7379279 C173.207018,80.8602655 177.200702,80.7428214 177.200702,80.7428214 Z" id="Shape"  stroke-width="0.75" ></path>
  </g>
</svg>
