<svg xmlns="http://www.w3.org/2000/svg" viewBox="0 0 108.27 31.95">
  <title>P.W. LaRue Heat Stamp Revised</title>
  <g>
    <path d="M24.59,30.61c1.77,0,3.59.69,3.59,2.76s-1.82,2.9-3.59,2.9H21v2.41c0,0.63.15,0.74,0.84,0.74h1.27V40H18V39.42h1.4c0.4,0,.7,0,0.7-0.73V32c0-.63-0.15-0.74-0.84-0.74H18V30.61h6.59Zm0.08,5c1.42,0,2.63-.77,2.63-2.22s-1.21-2.09-2.68-2.09H21v4.31h3.69Z" transform="translate(-17.88 -19.36)" stroke="" stroke-miterlimit="10" stroke-width="0.25"/>
    <path d="M30.77,38.17a1,1,0,0,1,0,2.08A1,1,0,1,1,30.77,38.17Z" transform="translate(-17.88 -19.36)" stroke="" stroke-miterlimit="10" stroke-width="0.25"/>
    <path d="M38.43,38.46l2.41-5.9-0.31-.74a1,1,0,0,0-1.06-.59H38.66V30.61h4.65v0.62H42.06c-0.54,0-.77.12-0.54,0.59l2.8,6.65L47,31.82c0.23-.43,0-0.59-0.45-0.59h-1.9V30.61h5.57v0.62H48.84a0.92,0.92,0,0,0-.94.59L44.47,40H44l-2.74-6.48L38.58,40H38.12l-3.48-8.22a1,1,0,0,0-1.06-.59H32.22V30.61h5.1v0.62H36.17c-0.54,0-.77.12-0.54,0.59Z" transform="translate(-17.88 -19.36)" stroke="" stroke-miterlimit="10" stroke-width="0.25"/>
    <path d="M51.68,38.17a1,1,0,0,1,0,2.08A1,1,0,1,1,51.68,38.17Z" transform="translate(-17.88 -19.36)" stroke="" stroke-miterlimit="10" stroke-width="0.25"/>
    <path d="M71.46,40h-10V39.42h1.27c0.53,0,.84,0,0.84-0.73V32c0-.63-0.15-0.74-0.84-0.74H61.49V30.61h5.62v0.62H65.17c-0.4,0-.7,0-0.7.73v7.41h4.48c1.77,0,2.06-.32,2.67-3.48L72.14,36Z" transform="translate(-17.88 -19.36)" stroke="" stroke-miterlimit="10" stroke-width="0.25"/>
    <path d="M76.8,30.61H80l4.38,8.22a1,1,0,0,0,1.07.59h1.27V40H81.46V39.42h1.35c0.54,0,.77-0.12.54-0.59L82.5,37.25H76.88l-0.8,1.58c-0.22.43,0,.59,0.45,0.59H78V40H72.82V39.42h1.43a0.92,0.92,0,0,0,.94-0.59l3.73-7.12c0.15-.28,0-0.49-0.4-0.49H76.8V30.61Zm2.83,1.31-2.4,4.66h4.91Z" transform="translate(-17.88 -19.36)" stroke="" stroke-miterlimit="10" stroke-width="0.25"/>
    <path d="M94.51,30.61c1.77,0,3.59.55,3.59,2.63A2.93,2.93,0,0,1,95.29,36a4.63,4.63,0,0,0,5,3.42L100.38,40c-3.67.65-5.58-2.37-6.07-4H90.89v2.68c0,0.63.15,0.74,0.84,0.74H93V40H87.91V39.42h1.4c0.4,0,.7,0,0.7-0.73V32c0-.63-0.15-0.74-0.84-0.74H87.91V30.61h6.59Zm0.08,4.72c1.41,0,2.63-.77,2.63-2.09s-1.21-2-2.68-2H90.89v4h3.69Z" transform="translate(-17.88 -19.36)" stroke="" stroke-miterlimit="10" stroke-width="0.25"/>
    <path d="M111.62,36c0,3-1.47,4.21-4.44,4.21s-4.6-1.25-4.6-4.21V32c0-.69-0.18-0.77-0.81-0.77h-1.12V30.61h4.95v0.61h-1.32c-0.71,0-.79.13-0.82,0.77V36c0,2.55,1.4,3.51,3.69,3.51s3.75-1,3.75-3.51V32c0-.66-0.07-0.77-0.77-0.77h-1.39V30.61h4.77v0.61h-1.13c-0.73,0-.77.13-0.77,0.77V36Z" transform="translate(-17.88 -19.36)" stroke="" stroke-miterlimit="10" stroke-width="0.25"/>
    <path d="M125.33,40H115.08V39.42h1.27c0.53,0,.84,0,0.84-0.73V32c0-.63-0.15-0.74-0.84-0.74h-1.27V30.61h10L125.66,34l-0.55.09c-0.42-2.52-.88-2.79-2.31-2.79h-4.75v3.56H121c0.63,0,.74-0.15.74-0.84V32.88h0.62v4.61h-0.62V36.23c0-.4,0-0.7-0.73-0.7h-2.94v3.84h4.75c1.77,0,2.06-.32,2.67-3.48L126,36Z" transform="translate(-17.88 -19.36)" stroke="" stroke-miterlimit="10" stroke-width="0.25"/>
  </g>
  <g class="upper-logo-title">
    <path d="M30.87,23.57H30.41l-0.33-.93h-1.8L28,23.57H27.49L29,19.47h0.37ZM30,22.27l-0.76-2.16-0.77,2.16H30Z" transform="translate(-17.88 -19.36)" stroke="" stroke-miterlimit="10" stroke-width="0.15"/>
    <path d="M34.71,22.22a1.32,1.32,0,0,1-.41,1,1.57,1.57,0,0,1-2.05,0,1.32,1.32,0,0,1-.4-1V19.47h0.44v2.71a1,1,0,0,0,.27.75,0.94,0.94,0,0,0,.73.28A1,1,0,0,0,34,22.93a1,1,0,0,0,.27-0.75V19.47h0.44v2.75Z" transform="translate(-17.88 -19.36)" stroke="" stroke-miterlimit="10" stroke-width="0.15"/>
    <path d="M38.6,19.87H37.41v3.71H37V19.87H35.79V19.47H38.6v0.39Z" transform="translate(-17.88 -19.36)" stroke="" stroke-miterlimit="10" stroke-width="0.15"/>
    <path d="M42.56,23.57H42.12V21.7H40.18v1.87H39.74v-4.1h0.44v1.84h1.95V19.47h0.44v4.1Z" transform="translate(-17.88 -19.36)" stroke="" stroke-miterlimit="10" stroke-width="0.15"/>
    <path d="M46.67,23.57H44.12v-4.1h2.54v0.39H44.56v1.45h1.8V21.7h-1.8v1.48h2.11v0.39Z" transform="translate(-17.88 -19.36)" stroke="" stroke-miterlimit="10" stroke-width="0.15"/>
    <path d="M51,23.57H50.56l-2.17-3.28v3.28H47.95v-4.1h0.41l2.18,3.28V19.47H51v4.1Z" transform="translate(-17.88 -19.36)" stroke="" stroke-miterlimit="10" stroke-width="0.15"/>
    <path d="M54.93,19.87H53.74v3.71H53.3V19.87H52.12V19.47h2.81v0.39Z" transform="translate(-17.88 -19.36)" stroke="" stroke-miterlimit="10" stroke-width="0.15"/>
    <path d="M56.5,23.57H56.07v-4.1H56.5v4.1Z" transform="translate(-17.88 -19.36)" stroke="" stroke-miterlimit="10" stroke-width="0.15"/>
    <path d="M60.76,22.39a1.44,1.44,0,0,1-.48.89,1.4,1.4,0,0,1-.95.33,1.42,1.42,0,0,1-1-.43A1.25,1.25,0,0,1,58,22.54a6.57,6.57,0,0,1,0-1,7,7,0,0,1,0-1,1.18,1.18,0,0,1,.34-0.65,1.44,1.44,0,0,1,1-.43,1.38,1.38,0,0,1,.95.33,1.5,1.5,0,0,1,.48.9H60.31A1.07,1.07,0,0,0,60,20.05a0.93,0.93,0,0,0-.64-0.22,1,1,0,0,0-.62.21,0.92,0.92,0,0,0-.33.56,5.85,5.85,0,0,0,0,.93q0,0.59,0,.74a1.16,1.16,0,0,0,.29.69,0.91,0.91,0,0,0,.69.27A0.94,0.94,0,0,0,60,23a1.09,1.09,0,0,0,.35-0.6h0.44Z" transform="translate(-17.88 -19.36)" stroke="" stroke-miterlimit="10" stroke-width="0.15"/>
    <path d="M66.45,23.57H63.91v-4.1h0.44v3.71h2.1v0.39Z" transform="translate(-17.88 -19.36)" stroke="" stroke-miterlimit="10" stroke-width="0.15"/>
    <path d="M70.13,23.57H67.59v-4.1h2.54v0.39H68v1.45h1.8V21.7H68v1.48h2.11v0.39Z" transform="translate(-17.88 -19.36)" stroke="" stroke-miterlimit="10" stroke-width="0.15"/>
    <path d="M74.27,23.57H73.81l-0.33-.93h-1.8l-0.32.93H70.89l1.51-4.1h0.37Zm-0.92-1.3-0.76-2.16-0.77,2.16h1.53Z" transform="translate(-17.88 -19.36)" stroke="" stroke-miterlimit="10" stroke-width="0.15"/>
    <path d="M77.7,19.87H76.51v3.71H76.07V19.87H74.89V19.47H77.7v0.39Z" transform="translate(-17.88 -19.36)" stroke="" stroke-miterlimit="10" stroke-width="0.15"/>
    <path d="M81.66,23.57H81.22V21.7H79.27v1.87H78.83v-4.1h0.44v1.84h1.95V19.47h0.44v4.1Z" transform="translate(-17.88 -19.36)" stroke="" stroke-miterlimit="10" stroke-width="0.15"/>
    <path d="M85.76,23.57H83.22v-4.1h2.54v0.39H83.65v1.45h1.8V21.7h-1.8v1.48h2.11v0.39Z" transform="translate(-17.88 -19.36)" stroke="" stroke-miterlimit="10" stroke-width="0.15"/>
    <path d="M89.91,23.57H89.4l-0.93-1.82h-1v1.82H87v-4.1h1.57a1.26,1.26,0,0,1,.88.31,1.07,1.07,0,0,1,.34.83,1.1,1.1,0,0,1-.24.72,1.13,1.13,0,0,1-.66.38Zm-0.52-3a0.7,0.7,0,0,0-.22-0.56,0.87,0.87,0,0,0-.59-0.2H87.48v1.5h1.09a0.88,0.88,0,0,0,.6-0.19A0.69,0.69,0,0,0,89.39,20.62Z" transform="translate(-17.88 -19.36)" stroke="" stroke-miterlimit="10" stroke-width="0.15"/>
    <path d="M96.51,23.57H96.08V20.46L95,22.93H94.58l-1.14-2.47v3.11H93v-4.1h0.44l1.33,2.9,1.3-2.9h0.44v4.1Z" transform="translate(-17.88 -19.36)" stroke="" stroke-miterlimit="10" stroke-width="0.15"/>
    <path d="M100.93,23.57h-0.46l-0.33-.93h-1.8L98,23.57H97.55l1.51-4.1h0.37ZM100,22.27l-0.76-2.16-0.77,2.16H100Z" transform="translate(-17.88 -19.36)" stroke="" stroke-miterlimit="10" stroke-width="0.15"/>
    <path d="M105,23.57h-0.52l-1.25-2.19-0.86,1v1.15H102v-4.1h0.44v2.35l1.91-2.35h0.54l-1.29,1.58Z" transform="translate(-17.88 -19.36)" stroke="" stroke-miterlimit="10" stroke-width="0.15"/>
    <path d="M108.63,23.57h-2.54v-4.1h2.54v0.39h-2.11v1.45h1.8V21.7h-1.8v1.48h2.11v0.39Z" transform="translate(-17.88 -19.36)" stroke="" stroke-miterlimit="10" stroke-width="0.15"/>
    <path d="M112.78,23.57h-0.51l-0.93-1.82h-1v1.82h-0.44v-4.1h1.57a1.26,1.26,0,0,1,.88.31,1.07,1.07,0,0,1,.34.83,1.1,1.1,0,0,1-.24.72,1.13,1.13,0,0,1-.66.38Zm-0.52-3a0.7,0.7,0,0,0-.22-0.56,0.87,0.87,0,0,0-.59-0.2h-1.09v1.5h1.09a0.88,0.88,0,0,0,.6-0.19A0.69,0.69,0,0,0,112.26,20.62Z" transform="translate(-17.88 -19.36)" stroke="" stroke-miterlimit="10" stroke-width="0.15"/>
    <path d="M116.54,22.44a1,1,0,0,1-.43.89,1.65,1.65,0,0,1-1,.28,1.9,1.9,0,0,1-1.41-.54l0.3-.3a1.52,1.52,0,0,0,1.12.45A1.19,1.19,0,0,0,115.8,23a0.66,0.66,0,0,0,.3-0.59,0.63,0.63,0,0,0-.2-0.51,1.11,1.11,0,0,0-.53-0.2l-0.48-.07a1.1,1.1,0,0,1-.67-1.94,1.42,1.42,0,0,1,.92-0.29,1.79,1.79,0,0,1,1.22.45l-0.28.28a1.35,1.35,0,0,0-1-.36,0.93,0.93,0,0,0-.6.19,0.69,0.69,0,0,0-.26.57,0.71,0.71,0,0,0,.74.7l0.45,0.07a1.44,1.44,0,0,1,.75.29A1,1,0,0,1,116.54,22.44Z" transform="translate(-17.88 -19.36)" stroke="" stroke-miterlimit="10" stroke-width="0.15"/>
  </g>
  <g class="lower-logo-title">
      <g>
        <path d="M43.31,50a1.44,1.44,0,0,1-.48.89,1.4,1.4,0,0,1-.95.33,1.42,1.42,0,0,1-1-.43,1.25,1.25,0,0,1-.34-0.65,6.57,6.57,0,0,1,0-1,7,7,0,0,1,0-1,1.17,1.17,0,0,1,.34-0.64,1.44,1.44,0,0,1,1-.43,1.39,1.39,0,0,1,.95.33,1.51,1.51,0,0,1,.48.9H42.86a1.07,1.07,0,0,0-.33-0.61,0.94,0.94,0,0,0-.64-0.22,1,1,0,0,0-.62.21,0.92,0.92,0,0,0-.33.56,5.84,5.84,0,0,0,0,.93q0,0.59,0,.74a1.16,1.16,0,0,0,.29.69,0.91,0.91,0,0,0,.69.27,0.94,0.94,0,0,0,.64-0.22,1.09,1.09,0,0,0,.35-0.6h0.44Z" transform="translate(-17.88 -19.36)" stroke="" stroke-miterlimit="10" stroke-width="0.15"/>
        <path d="M47.47,51.21H47V49.33H45.09v1.87H44.65v-4.1h0.44v1.84H47V47.11h0.44v4.1Z" transform="translate(-17.88 -19.36)" stroke="" stroke-miterlimit="10" stroke-width="0.15"/>
        <path d="M49.47,51.21H49v-4.1h0.44v4.1Z" transform="translate(-17.88 -19.36)" stroke="" stroke-miterlimit="10" stroke-width="0.15"/>
        <path d="M53.73,50a1.44,1.44,0,0,1-.48.89,1.4,1.4,0,0,1-.95.33,1.42,1.42,0,0,1-1-.43,1.25,1.25,0,0,1-.34-0.65,6.57,6.57,0,0,1,0-1,7,7,0,0,1,0-1,1.17,1.17,0,0,1,.34-0.64,1.44,1.44,0,0,1,1-.43,1.39,1.39,0,0,1,.95.33,1.51,1.51,0,0,1,.48.9H53.28A1.07,1.07,0,0,0,53,47.68a0.94,0.94,0,0,0-.64-0.22,1,1,0,0,0-.62.21,0.92,0.92,0,0,0-.33.56,5.84,5.84,0,0,0,0,.93q0,0.59,0,.74a1.16,1.16,0,0,0,.29.69,0.91,0.91,0,0,0,.69.27A0.94,0.94,0,0,0,53,50.63,1.09,1.09,0,0,0,53.3,50h0.44Z" transform="translate(-17.88 -19.36)" stroke="" stroke-miterlimit="10" stroke-width="0.15"/>
        <path d="M57.93,51.21H57.47l-0.33-.93h-1.8L55,51.21H54.55l1.51-4.1h0.37ZM57,49.91l-0.76-2.17-0.77,2.17H57Z" transform="translate(-17.88 -19.36)" stroke="" stroke-miterlimit="10" stroke-width="0.15"/>
        <path d="M61.69,49.71a1.56,1.56,0,0,1-.38,1.09,1.36,1.36,0,0,1-1.07.44,1.42,1.42,0,0,1-1-.43,1.25,1.25,0,0,1-.34-0.65,6.57,6.57,0,0,1,0-1,7,7,0,0,1,0-1,1.17,1.17,0,0,1,.34-0.64,1.45,1.45,0,0,1,1.05-.43,1.43,1.43,0,0,1,1,.33,1.44,1.44,0,0,1,.48.9H61.25a1.1,1.1,0,0,0-.35-0.61,1,1,0,0,0-.65-0.22,1,1,0,0,0-.71.29,1.09,1.09,0,0,0-.27.66c0,0.09,0,.34,0,0.74s0,0.64,0,.74a1.16,1.16,0,0,0,.29.69,0.91,0.91,0,0,0,.69.27A0.94,0.94,0,0,0,61,50.53a1.13,1.13,0,0,0,.26-0.78V49.44h-1V49.06h1.45v0.65Z" transform="translate(-17.88 -19.36)" stroke="" stroke-miterlimit="10" stroke-width="0.15"/>
        <path d="M65.8,49.16a7,7,0,0,1,0,1,1.18,1.18,0,0,1-.34.65,1.5,1.5,0,0,1-2.1,0A1.25,1.25,0,0,1,63,50.17a6.57,6.57,0,0,1,0-1,7,7,0,0,1,0-1,1.17,1.17,0,0,1,.34-0.64,1.5,1.5,0,0,1,2.1,0,1.25,1.25,0,0,1,.34.64A6.59,6.59,0,0,1,65.8,49.16Zm-0.44,0q0-.63,0-0.74a1.08,1.08,0,0,0-.28-0.66,0.94,0.94,0,0,0-.71-0.29,1,1,0,0,0-.71.29,1.09,1.09,0,0,0-.27.66c0,0.09,0,.34,0,0.74s0,0.67,0,.74a1.08,1.08,0,0,0,.28.66,0.94,0.94,0,0,0,.71.29,1,1,0,0,0,.71-0.29,1.09,1.09,0,0,0,.27-0.66Q65.36,49.76,65.36,49.16Z" transform="translate(-17.88 -19.36)" stroke="" stroke-miterlimit="10" stroke-width="0.15"/>
      </g>
      <g>
        <path d="M79.24,51.21H78.8v-4.1h0.44v4.1Z" transform="translate(-17.88 -19.36)" stroke="" stroke-miterlimit="10" stroke-width="0.15"/>
        <path d="M83.34,51.21H80.8v-4.1h0.44v3.71h2.1v0.39Z" transform="translate(-17.88 -19.36)" stroke="" stroke-miterlimit="10" stroke-width="0.15"/>
        <path d="M87,51.21H84.48v-4.1h0.44v3.71H87v0.39Z" transform="translate(-17.88 -19.36)" stroke="" stroke-miterlimit="10" stroke-width="0.15"/>
        <path d="M88.59,51.21H88.15v-4.1h0.44v4.1Z" transform="translate(-17.88 -19.36)" stroke="" stroke-miterlimit="10" stroke-width="0.15"/>
        <path d="M93.18,51.21H92.77l-2.18-3.29v3.29H90.15v-4.1h0.41l2.18,3.28V47.11h0.44v4.1Z" transform="translate(-17.88 -19.36)" stroke="" stroke-miterlimit="10" stroke-width="0.15"/>
        <path d="M97.46,49.16a6.89,6.89,0,0,1,0,1,1.17,1.17,0,0,1-.34.65,1.5,1.5,0,0,1-2.1,0,1.26,1.26,0,0,1-.34-0.65,6.64,6.64,0,0,1,0-1,7.08,7.08,0,0,1,0-1A1.18,1.18,0,0,1,95,47.5a1.44,1.44,0,0,1,1-.43,1.42,1.42,0,0,1,1,.43,1.25,1.25,0,0,1,.34.64A6.47,6.47,0,0,1,97.46,49.16Zm-0.44,0q0-.63,0-0.74a1.08,1.08,0,0,0-.28-0.66A0.94,0.94,0,0,0,96,47.46a1,1,0,0,0-.71.29,1.09,1.09,0,0,0-.27.66c0,0.09,0,.34,0,0.74s0,0.67,0,.74a1.09,1.09,0,0,0,.28.66,1,1,0,0,0,1.42,0A1.09,1.09,0,0,0,97,49.89Q97,49.76,97,49.16Z" transform="translate(-17.88 -19.36)" stroke="" stroke-miterlimit="10" stroke-width="0.15"/>
        <path d="M99.3,51.21H98.86v-4.1H99.3v4.1Z" transform="translate(-17.88 -19.36)" stroke="" stroke-miterlimit="10" stroke-width="0.15"/>
        <path d="M103.34,50.08a1,1,0,0,1-.43.89,1.65,1.65,0,0,1-1,.28,1.9,1.9,0,0,1-1.41-.54l0.3-.3a1.52,1.52,0,0,0,1.12.45,1.2,1.2,0,0,0,.67-0.17,0.66,0.66,0,0,0,.3-0.59,0.63,0.63,0,0,0-.2-0.51,1.12,1.12,0,0,0-.53-0.2l-0.48-.07a1.1,1.1,0,0,1-.67-1.94,1.41,1.41,0,0,1,.92-0.29,1.79,1.79,0,0,1,1.22.45l-0.28.28a1.36,1.36,0,0,0-1-.36,0.94,0.94,0,0,0-.61.19,0.7,0.7,0,0,0-.26.57,0.71,0.71,0,0,0,.74.7L102.24,49a1.45,1.45,0,0,1,.75.29A1,1,0,0,1,103.34,50.08Z" transform="translate(-17.88 -19.36)" stroke="" stroke-miterlimit="10" stroke-width="0.15"/>
      </g>

  <path d="M72.82,49.22H71.24V48.83h1.58v0.39Z" transform="translate(-17.88 -19.36)" stroke="" stroke-miterlimit="10" stroke-width="0.15"/>
  </g>
</svg>
